<svg width="37" height="37" viewBox="0 0 37 37" fill="none" xmlns="http://www.w3.org/2000/svg">
<path fill-rule="evenodd" clip-rule="evenodd" d="M4.625 7.70833L7.70833 4.625L32.375 29.2917L29.2917 32.375L4.625 7.70833ZM20.0417 7.70833L21.5833 4.625L23.125 7.70833L26.2083 9.25L23.125 10.7917L21.5833 13.875L20.0417 10.7917L16.9583 9.25L20.0417 7.70833ZM7.70833 23.125L9.25 20.0417L10.7917 23.125L13.875 24.6667L10.7917 26.2083L9.25 29.2917L7.70833 26.2083L4.625 24.6667L7.70833 23.125ZM6.16667 13.875L7.70833 15.4167L6.16667 16.9583L4.625 15.4167L6.16667 13.875ZM27.75 15.4167L29.2917 16.9583L27.75 18.5L26.2083 16.9583L27.75 15.4167Z" fill="#6ED33F"/>
</svg>
