<svg width="31" height="31" viewBox="0 0 31 31" fill="none" xmlns="http://www.w3.org/2000/svg">
<path d="M30.3039 26.2273L22.8893 18.812C24.0452 16.9147 24.6549 14.735 24.6512 12.5132C24.6512 5.80824 18.8416 1.58669e-07 12.1373 1.58669e-07C10.5433 -0.000257601 8.96491 0.313536 7.49223 0.923458C6.01955 1.53338 4.68145 2.42748 3.55435 3.55469C2.42725 4.6819 1.53323 6.02013 0.92337 7.49295C0.313506 8.96577 -0.000257576 10.5443 1.58654e-07 12.1384C1.58654e-07 18.8414 5.80964 24.6516 12.512 24.6516C14.6604 24.6536 16.7703 24.0818 18.6238 22.9955L26.0777 30.454C26.4282 30.8036 26.903 31 27.3981 31C27.8932 31 28.3681 30.8036 28.7186 30.454L30.5688 28.6036C31.2967 27.8756 31.0318 26.9553 30.3039 26.2273ZM3.73575 12.1384C3.73549 11.0349 3.95262 9.94204 4.37472 8.9224C4.79682 7.90275 5.41563 6.97626 6.19581 6.19582C6.97598 5.41539 7.90225 4.7963 8.92169 4.37392C9.94114 3.95154 11.0338 3.73415 12.1373 3.73415C16.7795 3.73415 20.9155 7.86859 20.9155 12.5132C20.915 14.742 20.0294 16.8794 18.4536 18.4554C16.8778 20.0314 14.7406 20.917 12.512 20.9175C7.8698 20.9155 3.73575 16.7791 3.73575 12.1384Z" fill="#8793EB"/>
</svg>
