<svg width="36" height="31" viewBox="0 0 36 31" fill="none" xmlns="http://www.w3.org/2000/svg">
<path d="M20.5 24.3438H17.9375V21.7812C17.9365 20.7621 17.5312 19.7851 16.8106 19.0644C16.0899 18.3438 15.1129 17.9385 14.0938 17.9375H8.96875C7.94964 17.9385 6.97255 18.3438 6.25193 19.0644C5.53131 19.7851 5.12602 20.7621 5.125 21.7812V24.3438H2.5625V21.7812C2.56453 20.0828 3.24013 18.4546 4.44109 17.2536C5.64206 16.0526 7.27033 15.377 8.96875 15.375H14.0938C15.7922 15.377 17.4204 16.0526 18.6214 17.2536C19.8224 18.4546 20.498 20.0828 20.5 21.7812V24.3438Z" fill="#A556B0"/>
<path d="M11.5313 2.5625C12.2915 2.5625 13.0346 2.78793 13.6667 3.21029C14.2988 3.63265 14.7915 4.23296 15.0824 4.93531C15.3733 5.63766 15.4495 6.41051 15.3011 7.15613C15.1528 7.90174 14.7868 8.58663 14.2492 9.12419C13.7116 9.66175 13.0267 10.0278 12.2811 10.1761C11.5355 10.3245 10.7627 10.2483 10.0603 9.95741C9.35796 9.66649 8.75765 9.17382 8.33529 8.54172C7.91293 7.90962 7.6875 7.16647 7.6875 6.40625C7.6875 5.38682 8.09247 4.40915 8.81331 3.68831C9.53415 2.96747 10.5118 2.5625 11.5313 2.5625ZM11.5313 0C10.2642 0 9.02563 0.37572 7.97213 1.07965C6.91863 1.78358 6.09752 2.78409 5.61265 3.95468C5.12778 5.12527 5.00091 6.41336 5.2481 7.65605C5.49528 8.89874 6.10542 10.0402 7.00135 10.9362C7.89728 11.8321 9.03876 12.4422 10.2815 12.6894C11.5241 12.9366 12.8122 12.8097 13.9828 12.3249C15.1534 11.84 16.1539 11.0189 16.8579 9.96537C17.5618 8.91187 17.9375 7.67329 17.9375 6.40625C17.9375 4.70721 17.2626 3.07775 16.0612 1.87635C14.8597 0.674942 13.2303 0 11.5313 0Z" fill="#A556B0"/>
<path d="M0 28.1875H35.875V30.75H0V28.1875Z" fill="#A556B0"/>
<path d="M32.4191 5.12494C31.9633 5.12499 31.5121 5.2164 31.0922 5.39377C30.6723 5.57115 30.2923 5.83088 29.9745 6.15763L29.4684 6.67526L28.9623 6.15635C28.6445 5.82967 28.2644 5.57 27.8445 5.39269C27.4246 5.21538 26.9734 5.12402 26.5177 5.12402C26.0619 5.12402 25.6107 5.21538 25.1908 5.39269C24.7709 5.57 24.3909 5.82967 24.073 6.15635C23.4249 6.82554 23.0625 7.72062 23.0625 8.65223C23.0625 9.58384 23.4249 10.4789 24.073 11.1481L29.4684 16.6562L34.8624 11.1494C35.5106 10.4802 35.873 9.58512 35.873 8.65351C35.873 7.7219 35.5106 6.82682 34.8624 6.15763C34.5449 5.83119 34.1653 5.57163 33.7459 5.39427C33.3264 5.21691 32.8758 5.12533 32.4204 5.12494H32.4191Z" fill="#A556B0"/>
</svg>
