<svg width="27" height="28" viewBox="0 0 27 28" fill="none" xmlns="http://www.w3.org/2000/svg">
<path d="M20.8636 2.43479H7.155C6.86549 1.62253 6.29582 0.937941 5.54668 0.502021C4.79754 0.0661013 3.91716 -0.0930827 3.06115 0.0526041C2.20513 0.198291 1.42859 0.639468 0.86878 1.29816C0.308969 1.95685 0.00193031 2.79065 0.00193031 3.65218C0.00193031 4.51371 0.308969 5.34751 0.86878 6.0062C1.42859 6.66489 2.20513 7.10607 3.06115 7.25176C3.91716 7.39744 4.79754 7.23826 5.54668 6.80234C6.29582 6.36642 6.86549 5.68183 7.155 4.86957H20.8636C21.8401 4.86957 22.7766 5.25435 23.4671 5.93927C24.1576 6.62418 24.5455 7.55313 24.5455 8.52174C24.5455 9.49036 24.1576 10.4193 23.4671 11.1042C22.7766 11.7891 21.8401 12.1739 20.8636 12.1739H16.9732C16.7152 11.4689 16.2446 10.8597 15.6254 10.4292C15.0062 9.99871 14.2684 9.76777 13.5123 9.76777C12.7561 9.76777 12.0183 9.99871 11.3991 10.4292C10.7799 10.8597 10.3093 11.4689 10.0514 12.1739H6.13636C4.5089 12.1739 2.94809 12.8152 1.7973 13.9567C0.646508 15.0983 0 16.6465 0 18.2609C0 19.8752 0.646508 21.4235 1.7973 22.565C2.94809 23.7065 4.5089 24.3478 6.13636 24.3478H13.5V28L18.4091 23.1304L13.5 18.2609V21.913H6.13636C5.15988 21.913 4.2234 21.5283 3.53293 20.8433C2.84245 20.1584 2.45455 19.2295 2.45455 18.2609C2.45455 17.2923 2.84245 16.3633 3.53293 15.6784C4.2234 14.9935 5.15988 14.6087 6.13636 14.6087H10.0636C10.324 15.3097 10.7948 15.9146 11.4126 16.3418C12.0303 16.7691 12.7653 16.9982 13.5184 16.9982C14.2715 16.9982 15.0065 16.7691 15.6242 16.3418C16.242 15.9146 16.7128 15.3097 16.9732 14.6087H20.8636C22.4911 14.6087 24.0519 13.9674 25.2027 12.8259C26.3535 11.6843 27 10.1361 27 8.52174C27 6.90738 26.3535 5.35914 25.2027 4.21762C24.0519 3.07609 22.4911 2.43479 20.8636 2.43479Z" fill="#FF5722"/>
</svg>
