<svg width="368" height="83" viewBox="0 0 368 83" fill="none" xmlns="http://www.w3.org/2000/svg">
<path d="M0.561097 48.9266L5.20073 48.1961V5.28543L0 4.61052L0.280548 0H32.676L31.8899 12.9846L25.424 12.8152L25.0323 4.6661H15.0067V23.9604H19.3737L20.3848 19.5193L24.9238 19.6305V32.9539H20.4403L19.3711 28.4016H15.0067V48.871H25.0879L26.0434 39.9914L32.8453 40.2164L33.3509 53.7621H0.338776L0.561097 48.9266Z" fill="white"/>
<path d="M36.3223 53.7628L36.4917 49.7716L40.1335 49.0411V21.9867L35.875 21.5924V17.5456L46.5279 16.029L47.3298 18.3343V19.8508C49.9157 17.1512 53.007 15.5791 56.9426 15.5791C62.7335 15.5791 67.0053 19.0648 67.0053 26.0361V49.0438L70.8694 49.7743L70.6445 53.7655H58.0807V27.9735C58.0807 24.2629 56.7176 22.1826 53.3987 22.1826C52.2738 22.1826 51.4719 22.4075 50.5747 22.6881C50.0109 23.138 49.5054 23.8129 49.0555 24.4323V49.0411L52.8773 49.7716L52.5967 53.7628H36.3223Z" fill="white"/>
<path d="M239.557 53.7628L239.726 49.7716L243.368 49.0411V21.9867L239.109 21.5924V17.5456L249.762 16.029L250.562 18.3343V19.8508C253.147 17.1512 256.239 15.5791 260.174 15.5791C265.965 15.5791 270.237 19.0648 270.237 26.0361V49.0438L274.101 49.7743L273.876 53.7655H261.312V27.9735C261.312 24.2629 259.947 22.1826 256.63 22.1826C255.508 22.1826 254.706 22.4075 253.806 22.6881C253.245 23.138 252.737 23.8129 252.29 24.4323V49.0411L256.112 49.7716L255.831 53.7628H239.557Z" fill="white"/>
<path d="M90.9567 53.016C89.4958 53.6353 86.8544 54.3076 83.4243 54.3076C78.9276 54.3076 74.7405 52.2855 74.7405 45.7059V21.9678L70.4688 21.2929L70.6381 16.5712L75.4736 16.3462L77.5539 9.14989L83.7101 8.8667V16.5685H90.4009L89.9378 21.2902L83.8292 21.9678V45.6503C83.8292 47.6168 84.8985 48.911 86.9205 48.911H90.5597L90.9567 53.016Z" fill="white"/>
<path d="M342.736 53.7625L342.906 49.8825L346.336 49.0964V21.9891L342.289 21.5947V17.5453L353.291 16.0287L354.022 18.6701V19.5144C356.891 17.3785 360.824 15.9731 365.493 15.9731L367.123 17.3785L365.998 27.555L359.927 27.3301L359.31 21.8779C357.904 22.1029 356.555 22.4972 355.43 23.2833V49.099L359.254 49.8851L358.974 53.7651L342.736 53.7625Z" fill="white"/>
<path d="M184.294 53.7625L184.463 49.8825L187.893 49.0964V21.9891L183.844 21.5947V17.5453L194.846 16.0287L195.576 18.6701V19.5144C198.446 17.3785 202.378 15.9731 207.047 15.9731L208.678 17.3785L207.553 27.555L201.481 27.3301L200.865 21.8779C199.459 22.1029 198.109 22.4972 196.985 23.2833V49.099L200.809 49.8851L200.528 53.7651L184.294 53.7625Z" fill="white"/>
<path d="M93.6218 53.7625L93.7912 49.8825L97.2213 49.0964V21.9891L93.1719 21.5947V17.5453L104.177 16.0287L104.907 18.6701V19.5144C107.774 17.3785 111.709 15.9731 116.375 15.9731L118.006 17.3785L116.881 27.555L110.809 27.3301L110.19 21.8779C108.785 22.1029 107.435 22.4972 106.31 23.2833V49.099L110.134 49.8851L109.854 53.7651L93.6218 53.7625Z" fill="white"/>
<path d="M128.504 37.276C128.504 43.7392 131.299 48.7441 136.902 48.7441C139.768 48.7441 142.074 48.1247 144.773 46.8887L146.292 50.43C143.537 52.6215 139.53 54.3074 134.47 54.3074C124.674 54.3074 119.016 45.8195 119.016 34.9125C119.016 25.6359 123.092 15.4858 134.364 15.4858C144.154 15.4858 147.87 24.5693 147.87 34.6875L146.914 37.104L128.504 37.276ZM128.335 32.946L139.649 32.4405C139.424 27.9411 138.493 20.7713 134.065 20.7713C133.014 20.7713 132.257 20.9407 130.907 21.6711C129.086 24.7625 128.311 30.3496 128.335 32.946Z" fill="white"/>
<path d="M284.827 37.276C284.827 43.7392 287.622 48.7441 293.225 48.7441C296.094 48.7441 298.396 48.1247 301.096 46.8887L302.613 50.43C299.86 52.6215 295.85 54.3074 290.79 54.3074C280.995 54.3074 275.336 45.8195 275.336 34.9125C275.336 25.6359 279.409 15.4858 290.684 15.4858C300.474 15.4858 304.19 24.5693 304.19 34.6875L303.235 37.104L284.827 37.276ZM284.658 32.946L295.972 32.4405C295.747 27.9411 294.816 20.7713 290.388 20.7713C289.337 20.7713 288.58 20.9407 287.23 21.6711C285.409 24.7625 284.636 30.3496 284.658 32.946Z" fill="white"/>
<path d="M219.155 37.276C219.155 43.7392 221.95 48.7441 227.553 48.7441C230.422 48.7441 232.725 48.1247 235.424 46.8887L236.941 50.43C234.188 52.6215 230.178 54.3074 225.118 54.3074C215.323 54.3074 209.664 45.8195 209.664 34.9125C209.664 25.6359 213.737 15.4858 225.01 15.4858C234.8 15.4858 238.516 24.5693 238.516 34.6875L237.56 37.104L219.155 37.276ZM218.986 32.946L230.3 32.4405C230.075 27.9411 229.144 20.7713 224.716 20.7713C223.665 20.7713 222.908 20.9407 221.558 21.6711C219.737 24.7625 218.964 30.3496 218.986 32.946Z" fill="white"/>
<path d="M329.628 53.7618L328.673 50.5567C326.198 52.9175 323.782 54.3229 320.016 54.3229C314.225 54.3229 309.04 51.401 309.04 43.416V21.0197L304.781 20.6254V17.0841L317.006 15.6787L317.962 18.8838V42.2938C317.962 46.3988 319.616 48.5346 322.938 48.5346C323.882 48.5346 325.076 48.4208 326.143 47.9735C326.759 47.3542 327.323 46.6237 327.829 45.8932V21.0197L323.443 20.6254V17.0841L335.795 15.6787L336.751 18.8838V49.0402L340.559 49.7706L340.109 53.7618H329.628Z" fill="white"/>
<path d="M166.176 48.9272C164.209 48.9272 162.69 48.5885 161.454 47.9162V24.1357C161.959 23.3497 162.579 22.6192 163.198 21.9443C164.323 21.5499 165.382 21.3832 166.562 21.3832C171.617 21.3832 172.454 26.5045 172.454 35.67C172.454 44.4967 171.141 46.9263 170.789 47.9188C169.436 48.5911 167.975 48.9272 166.176 48.9272ZM181.254 34.0079C181.254 22.6563 177.882 15.5234 169.516 15.5234C163.952 15.5234 161.308 18.7339 160.218 20.089V18.853L159.262 15.6478L148.273 17.167V21.0418L152.532 21.6029V67.4567L148.932 68.1872L148.763 72.0116H164.995L165.276 68.1872L161.454 67.4567V52.9158C162.973 53.7601 165.149 54.3212 167.512 54.3212C181.129 54.3265 181.254 40.397 181.254 34.0079Z" fill="white"/>
<path d="M364.822 48.501C366.672 48.501 367.853 49.5967 367.853 51.1371C367.853 52.6907 366.64 53.7732 364.822 53.7732C363.033 53.7732 361.789 52.6907 361.789 51.1371C361.789 49.5808 363.017 48.501 364.822 48.501ZM364.822 52.9474C366.082 52.9474 366.905 52.2037 366.905 51.1344C366.905 50.0652 366.082 49.3214 364.822 49.3214C363.578 49.3214 362.752 50.0519 362.752 51.1344C362.752 52.2037 363.578 52.9474 364.822 52.9474ZM363.501 52.3254L363.517 51.9602L363.83 51.8914V50.269L363.472 50.2293L363.488 49.864H364.933C365.555 49.864 366.132 50.0652 366.116 50.6077C366.1 50.9862 365.883 51.2032 365.587 51.325C365.743 51.5685 365.96 51.8252 366.116 51.9205L366.333 51.9602L366.302 52.3254H365.571C365.322 52.1216 365.089 51.8517 364.872 51.4203H364.64V51.894L364.949 51.9628L364.92 52.3281L363.501 52.3254ZM364.634 50.3113V51.0153H364.899C365.256 51.0153 365.336 50.8803 365.336 50.6765C365.336 50.3669 365.103 50.3113 364.806 50.3113H364.634Z" fill="white"/>
<path d="M296.487 82.9977H294.57V64.1719H296.487V82.9977Z" fill="white"/>
<path d="M315.483 80.2081H315.536V64.1719H317.452V82.9977H315.059L304.102 66.8027H304.049V82.9977H302.133V64.1719H304.525L315.483 80.2081Z" fill="white"/>
<path d="M323.125 64.1719H329.374C330.541 64.1719 331.719 64.3677 332.897 64.7568C334.074 65.1459 335.141 65.7361 336.088 66.5248C337.033 67.3161 337.801 68.2981 338.388 69.4758C338.973 70.6562 339.264 72.0272 339.264 73.5861C339.264 75.1662 338.973 76.5372 338.388 77.7097C337.801 78.8768 337.033 79.8588 336.088 80.6448C335.141 81.4362 334.074 82.0238 332.897 82.4155C331.719 82.8072 330.541 83.0004 329.374 83.0004H323.125V64.1719ZM325.041 81.2986H328.844C330.263 81.2986 331.499 81.0762 332.552 80.6316C333.606 80.1896 334.482 79.6073 335.173 78.8901C335.863 78.1728 336.382 77.355 336.726 76.4313C337.073 75.5076 337.245 74.5601 337.245 73.5861C337.245 72.6121 337.073 71.662 336.726 70.7409C336.382 69.8199 335.863 68.9994 335.173 68.2795C334.479 67.5623 333.606 66.9827 332.552 66.5407C331.499 66.096 330.263 65.8737 328.844 65.8737H325.041V81.2986Z" fill="white"/>
<path d="M345.838 82.9977H343.922V64.1719H345.838V82.9977Z" fill="white"/>
<path d="M351.359 82.9977H349.258L357.394 64.1719H359.254L367.34 82.9977H365.212L363.137 78.0511H353.405L351.359 82.9977ZM354.125 76.2963H362.422L358.275 66.2998L354.125 76.2963Z" fill="white"/>
</svg>
