<svg width="355" height="138" viewBox="0 0 355 138" fill="none" xmlns="http://www.w3.org/2000/svg">
<path d="M70.4575 82.7612H78.7619V60.2612L88.8054 29.9134H80.7184L75.0662 49.3264H74.9141L69.2401 29.9134H60.4141L70.4575 60.2612V82.7612ZM103.218 83.5221C104.937 83.6383 106.661 83.3884 108.277 82.7888C109.892 82.1892 111.361 81.2536 112.588 80.0438C114.891 77.3155 116.052 73.803 115.827 70.2395V42.4569C116.056 38.8795 114.896 35.3518 112.588 32.609C111.358 31.4038 109.888 30.4712 108.274 29.8719C106.659 29.2726 104.937 29.0201 103.218 29.1308C101.503 29.019 99.7837 29.2712 98.1727 29.8706C96.5617 30.47 95.0956 31.4032 93.8706 32.609C91.5521 35.3385 90.3831 38.8611 90.6097 42.4351V70.2395C90.3819 73.8071 91.5514 77.3233 93.8706 80.0438C95.0932 81.253 96.5589 82.1885 98.1705 82.7881C99.7821 83.3878 101.503 83.638 103.218 83.5221ZM98.8706 41.9134C98.8706 38.4569 100.305 36.7177 103.218 36.7177C106.131 36.7177 107.566 38.4569 107.566 41.9134V70.7612C107.566 74.2395 106.117 75.9786 103.218 75.9786C100.32 75.9786 98.8706 74.2395 98.8706 70.7612V41.9134ZM133.501 83.5221C135.193 83.6346 136.89 83.3866 138.479 82.7945C140.068 82.2024 141.513 81.2796 142.718 80.0873C144.981 77.324 146.108 73.8032 145.871 70.2395V29.9134H137.871V70.8264C138.005 72.2271 137.618 73.628 136.784 74.7612C136.38 75.1766 135.891 75.5003 135.351 75.7103C134.811 75.9204 134.232 76.0119 133.653 75.9786C133.06 76.0294 132.463 75.9463 131.906 75.7356C131.349 75.5249 130.847 75.1919 130.436 74.7612C129.594 73.6311 129.199 72.2298 129.327 70.8264V29.9134H121.11V70.2395C120.88 73.8058 122.015 77.3261 124.284 80.0873C125.489 81.2808 126.934 82.2043 128.523 82.7965C130.112 83.3887 131.809 83.636 133.501 83.5221ZM160.066 60.109H163.045C163.783 60.03 164.53 60.1179 165.23 60.3662C165.929 60.6146 166.565 61.017 167.088 61.5438C168.017 63.0607 168.429 64.8381 168.262 66.609V76.2612C168.192 77.6521 168.207 79.046 168.305 80.4351C168.415 81.2601 168.619 82.0698 168.914 82.8482H177.371C176.966 81.9762 176.709 81.0433 176.61 80.0873C176.492 78.8736 176.441 77.6544 176.458 76.4351V67.0656C176.559 64.5144 176.137 61.9694 175.218 59.5873C174.821 58.6821 174.223 57.879 173.47 57.2387C172.717 56.5985 171.828 56.1378 170.871 55.8916V55.7395C174.494 54.2902 176.305 50.8192 176.305 45.3264V42.0656C176.577 38.74 175.522 35.4419 173.371 32.8916C172.083 31.8003 170.592 30.9752 168.984 30.464C167.376 29.9527 165.682 29.7656 164.001 29.9134H151.762V82.7612H160.066V60.109ZM160.066 37.4569H163.849C164.448 37.4094 165.049 37.5004 165.607 37.7228C166.165 37.9452 166.664 38.2931 167.066 38.7395C167.838 39.9797 168.189 41.436 168.066 42.8916V46.9786C168.229 48.5334 167.785 50.091 166.827 51.3264C166.324 51.7831 165.733 52.1324 165.09 52.3529C164.447 52.5735 163.766 52.6606 163.088 52.609H160.066V37.4569ZM193.001 83.5221C194.71 83.6402 196.425 83.3908 198.03 82.7909C199.635 82.1909 201.093 81.2542 202.305 80.0438C204.618 77.2622 205.771 73.6964 205.523 70.0873C205.593 67.0722 204.922 64.0859 203.566 61.3916C201.671 58.2559 199.244 55.475 196.392 53.1742C194.25 51.425 192.355 49.3918 190.762 47.1308C189.72 45.5317 189.155 43.6694 189.131 41.7612C189.131 38.3916 190.523 36.7177 193.284 36.7177C193.858 36.6786 194.434 36.7697 194.969 36.9843C195.503 37.1988 195.983 37.5313 196.371 37.9569C197.181 39.109 197.558 40.5102 197.436 41.9134V44.6308H205.284V42.4569C205.538 38.9194 204.478 35.4125 202.305 32.609C201.142 31.4145 199.732 30.4883 198.174 29.895C196.616 29.3018 194.947 29.0558 193.284 29.1743C191.595 29.0606 189.901 29.3082 188.316 29.9005C186.73 30.4928 185.289 31.4161 184.088 32.609C181.823 35.3216 180.687 38.8002 180.914 42.3264C180.864 45.211 181.569 48.0586 182.958 50.5873C184.888 53.6655 187.311 56.405 190.131 58.696C192.258 60.4628 194.118 62.5276 195.653 64.8264C196.674 66.6037 197.193 68.625 197.153 70.6742C197.277 72.1079 196.892 73.5392 196.066 74.7177C195.655 75.1501 195.153 75.4871 194.597 75.7049C194.042 75.9228 193.445 76.0162 192.849 75.9786C189.95 75.9786 188.501 74.2612 188.501 70.8264V67.2177H180.762V70.2395C180.525 73.7924 181.627 77.3052 183.849 80.0873C185.037 81.285 186.47 82.2119 188.05 82.8047C189.629 83.3975 191.318 83.6422 193.001 83.5221ZM216.762 82.7612H225.066V37.4569H233.762V29.9134H208.088V37.4569H216.762V82.7612ZM249.458 83.5221C251.177 83.6383 252.901 83.3884 254.516 82.7888C256.131 82.1892 257.6 81.2536 258.827 80.0438C261.13 77.3155 262.291 73.803 262.066 70.2395V42.4569C262.295 38.8795 261.135 35.3518 258.827 32.609C256.226 30.3645 252.904 29.1297 249.468 29.1297C246.033 29.1297 242.711 30.3645 240.11 32.609C237.791 35.3385 236.622 38.8611 236.849 42.4351V70.2395C236.621 73.8071 237.791 77.3233 240.11 80.0438C241.332 81.253 242.798 82.1885 244.41 82.7881C246.021 83.3878 247.742 83.638 249.458 83.5221ZM245.11 41.9134C245.11 38.4569 246.545 36.7177 249.458 36.7177C252.371 36.7177 253.805 38.4569 253.805 41.9134V70.7612C253.805 74.2395 252.356 75.9786 249.458 75.9786C246.559 75.9786 245.11 74.2395 245.11 70.7612V41.9134ZM275.958 60.109H278.827C279.566 60.03 280.312 60.1179 281.012 60.3662C281.712 60.6146 282.347 61.017 282.871 61.5438C283.8 63.0607 284.212 64.8381 284.045 66.609V76.2612C284.014 77.6253 284.065 78.9901 284.197 80.3482C284.307 81.1732 284.511 81.9828 284.805 82.7612H293.24C292.851 81.8853 292.601 80.9537 292.501 80.0003C292.383 78.7867 292.332 77.5674 292.349 76.3482V67.0656C292.45 64.5144 292.029 61.9694 291.11 59.5873C290.713 58.6821 290.115 57.879 289.361 57.2387C288.608 56.5985 287.719 56.1378 286.762 55.8916V55.7395C290.4 54.2902 292.211 50.8192 292.197 45.3264V42.0656C292.469 38.74 291.414 35.4419 289.262 32.8916C287.975 31.8003 286.484 30.9752 284.875 30.464C283.267 29.9527 281.573 29.7656 279.892 29.9134H267.588V82.7612H275.892L275.958 60.109ZM275.958 37.4569H279.74C280.336 37.4078 280.935 37.4981 281.489 37.7207C282.044 37.9434 282.539 38.2922 282.936 38.7395C283.733 39.9694 284.093 41.4321 283.958 42.8916V46.9786C284.12 48.5334 283.676 50.091 282.718 51.3264C282.215 51.7831 281.624 52.1324 280.981 52.3529C280.338 52.5735 279.657 52.6606 278.979 52.609H275.958V37.4569ZM304.501 82.7612H312.805V60.2612L322.849 29.9134H314.762L309.11 49.3264H308.958L303.284 29.9134H294.458L304.501 60.2612V82.7612Z" fill="white"/>
<path d="M345.657 0H28.4609V112.022H354.352V0H345.657ZM345.657 103.348H36.9609V8.69565H345.657V103.348Z" fill="white"/>
<path d="M320.913 110.652C319.651 110.636 318.409 110.331 317.283 109.761V129.326H8.69565V34.6522H32.8696C32.2774 33.2397 32.0564 31.6992 32.2276 30.1771C32.3988 28.6551 32.9566 27.2022 33.8478 25.9565H0V138H325.957V109.739C324.341 110.334 322.634 110.643 320.913 110.652Z" fill="white"/>
<path d="M38.7154 106.564L6.78057 136.108L0.650136 129.978L32.5849 100.434L38.7154 106.564ZM34.5632 6.15143L6.30231 32.1514L0.171875 26.021L28.4327 0.0209961L34.5632 6.15143Z" fill="white"/>
</svg>
